<svg width="200" height="104" viewBox="0 0 200 104" fill="none" xmlns="http://www.w3.org/2000/svg">
<path d="M61.561 102.246C61.0578 101.743 60.8091 101.105 60.8091 100.328C60.8091 99.5509 61.0637 98.8996 61.5803 98.3964C62.0969 97.8857 62.7215 97.6311 63.4513 97.6311C64.0552 97.6311 64.5585 97.7924 64.967 98.1077C65.3756 98.423 65.6509 98.799 65.7915 99.2416L65.2956 99.4695C65.1683 99.101 64.9537 98.7857 64.6443 98.537C64.3424 98.2824 63.9397 98.1536 63.4365 98.1536C62.8666 98.1536 62.3826 98.3549 61.9814 98.7575C61.5862 99.1602 61.3849 99.6694 61.3849 100.294C61.3849 100.919 61.5788 101.441 61.9681 101.85C62.3574 102.26 62.8473 102.467 63.4439 102.467C64.3764 102.467 65.0011 101.964 65.3015 101.139L65.7974 101.373C65.6435 101.823 65.3548 102.205 64.9389 102.52C64.5304 102.836 64.0197 102.989 63.4231 102.989C62.6845 102.989 62.0613 102.741 61.5581 102.245L61.561 102.246Z" fill="white"/>
<path d="M69.4889 100.81V102.938H68.9382V97.6842H70.7559C71.3658 97.6842 71.8232 97.8322 72.1311 98.1209C72.4464 98.4095 72.6003 98.7781 72.6003 99.2147C72.6003 99.6514 72.4656 99.9859 72.1918 100.248C71.9164 100.51 71.5745 100.664 71.1586 100.717L72.7824 102.938H72.1118L70.562 100.81H69.4889ZM69.4889 100.307H70.7101C71.1526 100.307 71.4886 100.199 71.7092 99.9919C71.9298 99.7832 72.0452 99.5286 72.0452 99.234C72.0452 98.6434 71.6426 98.2008 70.7234 98.2008H69.4889V100.307Z" fill="white"/>
<path d="M79.2007 98.1934H76.4637V100.011H78.9668V100.522H76.4637V102.427H79.2273V102.936H75.9131V97.6827H79.2007V98.1919V98.1934Z" fill="white"/>
<path d="M82.3652 102.936H81.8013L84.069 97.6827H84.6921L86.9598 102.936H86.3766L85.8067 101.595H82.9425L82.3652 102.936ZM85.5921 101.092L84.3709 98.2541L83.1497 101.092H85.5921Z" fill="white"/>
<path d="M94.7949 102.936V98.4347H94.789L92.8366 102.936H92.3407L90.4016 98.4687V102.936H89.8584V97.6827H90.637L92.6027 102.184L94.5477 97.6827H95.3396V102.936H94.7964H94.7949Z" fill="white"/>
<path d="M103.099 102.212C102.596 102.729 101.965 102.991 101.207 102.991C100.449 102.991 99.8321 102.736 99.3288 102.226C98.8256 101.709 98.5784 101.078 98.5784 100.328C98.5784 99.5775 98.833 98.9262 99.3362 98.4096C99.8395 97.893 100.47 97.631 101.228 97.631C101.986 97.631 102.596 97.8856 103.099 98.4022C103.602 98.9114 103.857 99.5434 103.857 100.294C103.857 101.044 103.602 101.696 103.099 102.212ZM102.696 98.7841C102.301 98.3607 101.804 98.1461 101.207 98.1461C100.611 98.1461 100.121 98.3548 99.7315 98.7767C99.3422 99.1926 99.1483 99.6959 99.1483 100.292C99.1483 100.889 99.3422 101.413 99.7389 101.835C100.134 102.258 100.631 102.473 101.228 102.473C101.824 102.473 102.314 102.264 102.704 101.848C103.093 101.426 103.287 100.923 103.287 100.325C103.287 99.727 103.093 99.2045 102.696 98.7826V98.7841Z" fill="white"/>
<path d="M106.693 101.709L107.169 101.46C107.437 102.112 107.834 102.473 108.51 102.473C108.826 102.473 109.094 102.385 109.308 102.218C109.53 102.051 109.637 101.829 109.637 101.561C109.637 101.025 109.221 100.71 108.416 100.514C107.342 100.252 106.845 99.7906 106.845 99.0593C106.845 98.6227 107.006 98.2807 107.328 98.0202C107.65 97.7582 108.038 97.625 108.496 97.625C109.327 97.625 109.905 98.0543 110.153 98.7189L109.684 98.9809C109.464 98.4243 109.061 98.1431 108.484 98.1431C108.188 98.1431 107.933 98.223 107.718 98.3918C107.504 98.559 107.396 98.7737 107.396 99.0357C107.396 99.5123 107.718 99.7669 108.516 99.9756C109.134 100.13 109.576 100.352 109.838 100.64C110.079 100.902 110.201 101.197 110.201 101.525C110.201 101.928 110.047 102.276 109.737 102.564C109.43 102.853 109.02 102.994 108.51 102.994C107.618 102.994 107.014 102.564 106.693 101.713V101.709Z" fill="white"/>
<path d="M118.397 98.2008H116.64V97.6842H120.705V98.2008H118.953V102.938H118.397V98.2008Z" fill="white"/>
<path d="M124.272 100.81V102.938H123.721V97.6842H125.539C126.149 97.6842 126.606 97.8322 126.914 98.1209C127.23 98.4095 127.383 98.7781 127.383 99.2147C127.383 99.6514 127.249 99.9859 126.975 100.248C126.7 100.51 126.358 100.664 125.942 100.717L127.566 102.938H126.895L125.345 100.81H124.272ZM124.272 100.307H125.493C125.936 100.307 126.272 100.199 126.492 99.9919C126.713 99.7832 126.828 99.5286 126.828 99.234C126.828 98.6434 126.426 98.2008 125.507 98.2008H124.272V100.307Z" fill="white"/>
<path d="M130.55 102.936H129.986L132.253 97.6827H132.876L135.144 102.936H134.561L133.991 101.595H131.127L130.55 102.936ZM133.776 101.092L132.555 98.2541L131.334 101.092H133.776Z" fill="white"/>
<path d="M142.322 102.936H141.731L138.584 98.4613V102.936H138.041V97.6827H138.678L141.777 102.07V97.6827H142.32V102.936H142.322Z" fill="white"/>
<path d="M150.504 103.063L149.821 102.446C149.351 102.809 148.808 102.989 148.191 102.989C147.44 102.989 146.816 102.735 146.312 102.224C145.809 101.708 145.561 101.077 145.561 100.326C145.561 99.576 145.809 98.9247 146.312 98.4081C146.816 97.8915 147.446 97.6295 148.204 97.6295C148.962 97.6295 149.579 97.8841 150.083 98.4007C150.586 98.9099 150.84 99.542 150.84 100.292C150.84 100.984 150.626 101.574 150.203 102.078L150.867 102.647L150.504 103.063ZM146.714 101.836C147.109 102.26 147.606 102.474 148.203 102.474C148.666 102.474 149.069 102.347 149.417 102.092L148.41 101.213L148.779 100.805L149.798 101.724C150.114 101.329 150.268 100.858 150.268 100.328C150.268 99.724 150.072 99.2074 149.677 98.7856C149.282 98.3622 148.784 98.1476 148.188 98.1476C147.591 98.1476 147.101 98.3563 146.712 98.7782C146.323 99.1941 146.129 99.6974 146.129 100.294C146.129 100.89 146.323 101.414 146.712 101.836H146.714Z" fill="white"/>
<path d="M157.969 97.6842V100.884C157.969 102.22 157.238 102.991 155.998 102.991C155.373 102.991 154.884 102.803 154.542 102.427C154.201 102.051 154.026 101.548 154.026 100.917V97.6842H154.577V100.89C154.577 101.984 155.14 102.474 156.018 102.474C156.896 102.474 157.42 101.91 157.42 100.924V97.6842H157.971H157.969Z" fill="white"/>
<path d="M162.061 102.936H161.51V97.6827H162.061V102.936Z" fill="white"/>
<path d="M166.218 102.419H168.707V102.936H165.668V97.6827H166.218V102.419Z" fill="white"/>
<path d="M172.275 102.936H171.725V97.6827H172.275V102.936Z" fill="white"/>
<path d="M175.883 97.6842H177.446C178.257 97.6842 178.922 97.9329 179.438 98.4347C179.955 98.9306 180.217 99.5552 180.217 100.3C180.217 101.044 179.949 101.702 179.419 102.199C178.889 102.689 178.232 102.938 177.446 102.938H175.883V97.6842ZM176.433 102.419H177.427C178.091 102.419 178.621 102.226 179.03 101.829C179.438 101.434 179.647 100.93 179.647 100.313C179.647 99.6958 179.446 99.1925 179.037 98.7973C178.635 98.4021 178.097 98.2008 177.421 98.2008H176.435V102.421L176.433 102.419Z" fill="white"/>
<path d="M183.308 102.936H182.744L185.011 97.6827H185.635L187.902 102.936H187.319L186.749 101.595H183.885L183.308 102.936ZM186.534 101.092L185.313 98.2541L184.092 101.092H186.534Z" fill="white"/>
<path d="M190.799 97.6842H192.362C193.173 97.6842 193.838 97.9329 194.354 98.4347C194.871 98.9306 195.133 99.5552 195.133 100.3C195.133 101.044 194.865 101.702 194.335 102.199C193.805 102.689 193.148 102.938 192.362 102.938H190.799V97.6842ZM191.349 102.419H192.343C193.007 102.419 193.537 102.226 193.946 101.829C194.354 101.434 194.563 100.93 194.563 100.313C194.563 99.6958 194.362 99.1925 193.953 98.7973C193.551 98.4021 193.013 98.2008 192.337 98.2008H191.351V102.421L191.349 102.419Z" fill="white"/>
<path d="M160.551 6.59146C160.551 8.4743 162.077 10.0019 163.961 10.0019C165.845 10.0019 167.371 8.47578 167.371 6.59146C167.371 4.70714 165.845 3.18103 163.961 3.18103C162.077 3.18103 160.551 4.70714 160.551 6.59146Z" fill="white"/>
<path d="M150.02 20.7422C150.811 18.8737 149.938 16.7177 148.07 15.9265C146.201 15.1353 144.045 16.0086 143.254 17.877C142.463 19.7455 143.336 21.9015 145.205 22.6927C147.073 23.4839 149.229 22.6106 150.02 20.7422Z" fill="white"/>
<path d="M137.21 55.1708C137.21 56.7428 138.485 58.0173 140.057 58.0173C141.629 58.0173 142.903 56.7428 142.903 55.1708C142.903 53.5988 141.629 52.3243 140.057 52.3243C138.485 52.3243 137.21 53.5988 137.21 55.1708Z" fill="white"/>
<path d="M177.812 12.8365C177.812 15.0569 179.611 16.8553 181.83 16.8553C184.049 16.8553 185.849 15.0554 185.849 12.8365C185.849 10.6177 184.051 8.81775 181.83 8.81775C179.61 8.81775 177.812 10.6177 177.812 12.8365Z" fill="white"/>
<path d="M185.938 19.0016C185.938 20.8282 187.418 22.3085 189.245 22.3085C191.071 22.3085 192.551 20.8282 192.551 19.0016C192.551 17.175 191.071 15.6948 189.245 15.6948C187.418 15.6948 185.938 17.175 185.938 19.0016Z" fill="white"/>
<path d="M123.353 29.036C123.353 30.9484 124.903 32.4997 126.817 32.4997C128.73 32.4997 130.28 30.9499 130.28 29.036C130.28 27.1221 128.73 25.5723 126.817 25.5723C124.903 25.5723 123.353 27.1221 123.353 29.036Z" fill="white"/>
<path d="M173.46 10.7671C175.032 10.7671 176.306 9.49274 176.306 7.92068C176.306 6.34862 175.032 5.07422 173.46 5.07422C171.888 5.07422 170.613 6.34862 170.613 7.92068C170.613 9.49274 171.888 10.7671 173.46 10.7671Z" fill="white"/>
<path d="M153.95 45.7255C153.95 47.3123 155.237 48.5986 156.823 48.5986C158.41 48.5986 159.696 47.3123 159.696 45.7255C159.696 44.1387 158.41 42.8524 156.823 42.8524C155.237 42.8524 153.95 44.1387 153.95 45.7255Z" fill="white"/>
<path d="M145.863 28.5697C145.863 29.7465 146.816 30.7013 147.994 30.7013C149.172 30.7013 150.126 29.748 150.126 28.5697C150.126 27.3915 149.172 26.4382 147.994 26.4382C146.816 26.4382 145.863 27.393 145.863 28.5697Z" fill="white"/>
<path d="M133.414 60.8503C133.414 61.9664 134.318 62.8723 135.436 62.8723C136.553 62.8723 137.458 61.9679 137.458 60.8503C137.458 59.7328 136.553 58.8298 135.436 58.8298C134.318 58.8298 133.414 59.7342 133.414 60.8503Z" fill="white"/>
<path d="M125.314 38.9579C125.314 40.4337 126.51 41.6312 127.987 41.6312C129.465 41.6312 130.661 40.4352 130.661 38.9579C130.661 37.4807 129.465 36.2847 127.987 36.2847C126.51 36.2847 125.314 37.4807 125.314 38.9579Z" fill="white"/>
<path d="M181.913 25.5734C183.15 25.0574 183.734 23.6367 183.218 22.4002C182.702 21.1636 181.281 20.5795 180.045 21.0955C178.808 21.6115 178.224 23.0322 178.74 24.2688C179.256 25.5053 180.677 26.0894 181.913 25.5734Z" fill="white"/>
<path d="M139.936 9.29725C139.936 10.9655 141.288 12.3184 142.957 12.3184C144.625 12.3184 145.978 10.9655 145.978 9.29725C145.978 7.62904 144.625 6.27612 142.957 6.27612C141.288 6.27612 139.936 7.62904 139.936 9.29725Z" fill="white"/>
<path d="M172.782 43.0537C172.782 44.2852 173.781 45.2844 175.012 45.2844C176.244 45.2844 177.243 44.2852 177.243 43.0537C177.243 41.8221 176.245 40.823 175.012 40.823C173.779 40.823 172.782 41.8221 172.782 43.0537Z" fill="white"/>
<path d="M151.694 19.8971C151.694 24.3763 155.325 28.0072 159.804 28.0072C164.284 28.0072 167.915 24.3763 167.915 19.8971C167.915 15.418 164.284 11.787 159.804 11.787C155.325 11.787 151.694 15.418 151.694 19.8971Z" fill="white"/>
<path d="M166.312 30.7708C166.312 34.4314 169.279 37.4007 172.94 37.4007C176.601 37.4007 179.57 34.4328 179.57 30.7708C179.57 27.1087 176.602 24.1409 172.94 24.1409C169.278 24.1409 166.312 27.1087 166.312 30.7708Z" fill="#EE2059"/>
<path d="M183.94 29.2107C183.94 32.3147 186.478 34.8296 189.612 34.8296C192.746 34.8296 195.284 32.3133 195.284 29.2107C195.284 26.1082 192.746 23.5918 189.612 23.5918C186.478 23.5918 183.94 26.1082 183.94 29.2107Z" fill="white"/>
<path d="M144.758 37.9618C144.758 40.0829 146.477 41.8015 148.598 41.8015C150.719 41.8015 152.438 40.0829 152.438 37.9618C152.438 35.8406 150.719 34.1221 148.598 34.1221C146.477 34.1221 144.758 35.8406 144.758 37.9618Z" fill="white"/>
<path d="M142.442 33.9652C143.245 31.1059 141.578 28.1368 138.719 27.3337C135.859 26.5305 132.89 28.1973 132.087 31.0566C131.284 33.916 132.951 36.885 135.81 37.6882C138.669 38.4914 141.638 36.8245 142.442 33.9652Z" fill="white"/>
<path d="M143.799 49.7206C143.799 52.2236 145.828 54.2545 148.333 54.2545C150.838 54.2545 152.867 52.2251 152.867 49.7206C152.867 47.216 150.838 45.1866 148.333 45.1866C145.828 45.1866 143.799 47.216 143.799 49.7206Z" fill="white"/>
<path d="M128.766 18.975C128.766 22.4417 131.575 25.2511 135.042 25.2511C138.509 25.2511 141.318 22.4417 141.318 18.975C141.318 15.5083 138.509 12.6989 135.042 12.6989C131.575 12.6989 128.766 15.5083 128.766 18.975Z" fill="white"/>
<path d="M169.469 17.2105C169.469 19.3243 171.182 21.0369 173.295 21.0369C175.409 21.0369 177.122 19.3243 177.122 17.2105C177.122 15.0968 175.409 13.3842 173.295 13.3842C171.182 13.3842 169.469 15.0968 169.469 17.2105Z" fill="white"/>
<path d="M148.793 7.82442C148.793 10.1454 150.675 12.0268 152.996 12.0268C155.317 12.0268 157.198 10.1454 157.198 7.82442C157.198 5.50343 155.317 3.62207 152.996 3.62207C150.675 3.62207 148.793 5.50343 148.793 7.82442Z" fill="white"/>
<path d="M154.635 34.2256C154.635 36.9078 156.81 39.0822 159.492 39.0822C162.174 39.0822 164.349 36.9078 164.349 34.2256C164.349 31.5435 162.174 29.369 159.492 29.369C156.81 29.369 154.635 31.5435 154.635 34.2256Z" fill="white"/>
<path d="M134.5 43.3971C134.5 45.6751 136.346 47.521 138.624 47.521C140.902 47.521 142.748 45.6751 142.748 43.3971C142.748 41.119 140.902 39.2732 138.624 39.2732C136.346 39.2732 134.5 41.119 134.5 43.3971Z" fill="white"/>
<path d="M182.742 42.6974C184.657 42.695 186.207 41.1397 186.204 39.2235C186.202 37.3073 184.648 35.7558 182.734 35.7581C180.819 35.7604 179.269 37.3157 179.271 39.232C179.273 41.1482 180.827 42.6997 182.742 42.6974Z" fill="white"/>
<path d="M162.271 42.5194C162.271 44.531 163.9 46.1607 165.912 46.1607C167.923 46.1607 169.553 44.531 169.553 42.5194C169.553 40.5078 167.923 38.8781 165.912 38.8781C163.9 38.8781 162.271 40.5093 162.271 42.5194Z" fill="white"/>
<path d="M14.8733 81.8339L10.1425 62.6339H0V93.0806H7.00145V77.6063L11.2023 93.0806H18.2807L22.526 77.5012V93.0806H29.5704V62.6339H19.604L14.8733 81.8339Z" fill="white"/>
<path d="M51.7144 81.7408L51.5975 82.2677C51.2215 83.9611 50.5317 85.2637 49.5503 86.14C48.5734 87.0118 47.2945 87.4367 45.6396 87.4367C43.4948 87.4367 41.9376 86.6536 40.8777 85.0446C39.7735 83.369 39.214 80.9503 39.214 77.8552C39.214 74.76 39.7809 72.4139 40.8999 70.7087C41.9731 69.0701 43.6235 68.2737 45.946 68.2737C47.2634 68.2737 48.418 68.6778 49.4734 69.5097C50.5302 70.3416 51.226 71.4902 51.6019 73.0193L51.7277 73.5315H59.0918L59.0178 72.7913C58.8654 71.2608 58.4524 69.7969 57.7922 68.4425C57.1261 67.0836 56.2187 65.8861 55.0923 64.8825C53.9688 63.8819 52.6129 63.0855 51.0631 62.5186C49.5178 61.9532 47.7815 61.666 45.9001 61.666C43.7449 61.666 41.7599 62.0538 40 62.8176C38.2326 63.5859 36.7139 64.7005 35.4853 66.1289C34.2626 67.5514 33.3108 69.3099 32.6581 71.36C32.0127 73.3894 31.6841 75.6911 31.6841 78.2045C31.6841 80.7179 32.0453 83.0789 32.7543 85.0313C33.4677 86.9926 34.4669 88.6697 35.7221 90.0137C36.9833 91.3696 38.5049 92.3998 40.2427 93.0763C41.9657 93.7468 43.8397 94.0858 45.8113 94.0858C47.5787 94.0858 49.2217 93.806 50.6931 93.2539C52.1689 92.7003 53.4863 91.904 54.6112 90.887C55.7332 89.8716 56.6732 88.643 57.4088 87.2368C58.1356 85.8439 58.6729 84.2631 59.006 82.5401L59.1614 81.7378H51.7129L51.7144 81.7408Z" fill="white"/>
<path d="M61.1406 92.4058V63.3062H75.4706C78.3334 63.3062 80.5108 64.0152 81.9999 65.4317C83.4905 66.8498 84.235 68.7844 84.235 71.2386C84.235 72.4954 83.899 73.6129 83.227 74.5914C82.555 75.5698 81.7083 76.264 80.6855 76.6725C81.2983 76.9064 81.8756 77.2069 82.4158 77.571C82.9561 77.9367 83.4239 78.4044 83.8191 78.9743C84.2128 79.5442 84.5266 80.2162 84.762 80.9903C84.9959 81.7645 85.1128 82.6778 85.1128 83.7288C85.1128 86.3872 84.2217 88.4995 82.4395 90.0611C80.6573 91.6243 77.9263 92.4058 74.245 92.4058H61.1421H61.1406ZM67.0127 68.3463V74.6565H74.6817C77.1359 74.6565 78.363 73.6055 78.363 71.5007C78.363 70.3905 78.0477 69.5882 77.4201 69.0908C76.791 68.595 75.7608 68.3448 74.3309 68.3448H67.0127V68.3463ZM74.7261 87.4545C76.1279 87.4545 77.2232 87.0607 78.0122 86.2703C78.8011 85.4813 79.1964 84.4881 79.1964 83.2906C79.1964 82.0058 78.8085 81.0703 78.0344 80.4856C77.2602 79.9009 76.1871 79.6093 74.8134 79.6093H67.0127V87.4545H74.7261Z" fill="white"/>
<path d="M86.251 92.4057V70.8448H91.5975V73.4307C92.0638 72.701 92.5538 72.1311 93.0659 71.7225C93.5766 71.314 94.1021 70.9987 94.6438 70.7796C95.1841 70.5606 95.7318 70.4214 96.2869 70.3637C96.842 70.306 97.4118 70.2764 97.9965 70.2764H98.7411V76.1055C98.2156 76.0181 97.6901 75.9737 97.1632 75.9737C93.6861 75.9737 91.9483 77.713 91.9483 81.1886V92.4071H86.251V92.4057Z" fill="white"/>
<path d="M109.522 92.9756C107.769 92.9756 106.204 92.6973 104.832 92.1422C103.459 91.5871 102.298 90.813 101.348 89.8197C100.399 88.8265 99.6752 87.629 99.1794 86.2258C98.682 84.8225 98.4348 83.289 98.4348 81.6238C98.4348 79.9585 98.6909 78.3806 99.2016 76.9788C99.7122 75.5756 100.451 74.3796 101.414 73.3849C102.378 72.3916 103.54 71.6249 104.897 71.0846C106.256 70.5443 107.797 70.2734 109.522 70.2734C111.246 70.2734 112.735 70.5443 114.079 71.0846C115.423 71.6264 116.57 72.3857 117.519 73.3641C118.47 74.344 119.199 75.5327 119.71 76.9359C120.222 78.3377 120.477 79.9023 120.477 81.6252C120.477 83.3482 120.221 84.9054 119.71 86.2924C119.198 87.6808 118.468 88.8709 117.519 89.8642C116.569 90.8574 115.416 91.6241 114.057 92.1644C112.698 92.7047 111.187 92.9756 109.522 92.9756ZM109.522 88.1989C112.999 88.1989 114.736 86.0082 114.736 81.6252C114.736 77.2423 112.999 75.096 109.522 75.096C106.045 75.096 104.307 77.2734 104.307 81.6252C104.307 85.9771 106.045 88.1989 109.522 88.1989Z" fill="white"/>
<path d="M135.553 92.4058L130.819 82.7207L128.058 85.5701V92.4072H122.316V62.9583H128.058V79.0423L135.157 70.8478H142.125L134.894 78.7803L141.95 92.4102H135.551L135.553 92.4058Z" fill="white"/>
<path d="M146.246 83.1159C146.333 84.753 146.808 86.0527 147.671 87.0163C148.533 87.9799 149.665 88.4625 151.067 88.4625C152.003 88.4625 152.827 88.2508 153.543 87.8274C154.258 87.4041 154.72 86.8135 154.924 86.0527H160.796C160.124 88.273 158.957 89.9827 157.291 91.1802C155.626 92.3791 153.638 92.9771 151.33 92.9771C144.144 92.9771 140.55 89.062 140.55 81.2331C140.55 79.5678 140.784 78.0639 141.252 76.7199C141.718 75.3758 142.397 74.2213 143.29 73.2576C144.181 72.294 145.269 71.5554 146.554 71.0447C147.839 70.534 149.316 70.278 150.981 70.278C154.312 70.278 156.831 71.3452 158.541 73.4782C160.249 75.6112 161.104 78.8247 161.104 83.1189H146.247L146.246 83.1159ZM155.231 79.5219C155.201 78.733 155.062 78.0388 154.815 77.4407C154.566 76.8427 154.238 76.3454 153.829 75.9502C153.419 75.5564 152.953 75.2648 152.426 75.0739C151.9 74.8844 151.359 74.7882 150.804 74.7882C149.664 74.7882 148.678 75.2056 147.846 76.0375C147.013 76.8709 146.538 78.0314 146.421 79.5219H155.229H155.231Z" fill="white"/>
<path d="M162.855 92.4057V70.8448H168.202V73.4307C168.668 72.701 169.158 72.1311 169.67 71.7225C170.181 71.314 170.706 70.9987 171.248 70.7796C171.788 70.5606 172.336 70.4214 172.891 70.3637C173.445 70.306 174.015 70.2764 174.599 70.2764H175.345V76.1055C174.82 76.0181 174.293 75.9737 173.767 75.9737C170.29 75.9737 168.553 77.713 168.553 81.1886V92.4071H162.855V92.4057Z" fill="white"/>
<path d="M189.106 77.3741C188.959 76.3808 188.586 75.6585 187.988 75.2055C187.389 74.7526 186.477 74.5261 185.25 74.5261C184.023 74.5261 183.197 74.6652 182.599 74.942C182.001 75.2203 181.7 75.694 181.7 76.366C181.7 76.9507 181.999 77.417 182.599 77.7678C183.197 78.1186 184.067 78.4546 185.207 78.7758C187.076 79.3013 188.654 79.7468 189.94 80.1125C191.225 80.4781 192.255 80.9088 193.03 81.4047C193.804 81.902 194.359 82.5223 194.695 83.2668C195.029 84.0114 195.198 85.0135 195.198 86.2687C195.198 88.1974 194.394 89.7961 192.788 91.0676C191.181 92.3391 188.801 92.9741 185.645 92.9741C184.097 92.9741 182.693 92.7994 181.438 92.4486C180.181 92.0978 179.107 91.5945 178.217 90.9373C177.326 90.2801 176.639 89.4911 176.158 88.5704C175.677 87.6497 175.419 86.6195 175.391 85.4812H181.263C181.263 86.5041 181.665 87.293 182.468 87.8481C183.272 88.4032 184.316 88.6815 185.602 88.6815C186.682 88.6815 187.611 88.5142 188.385 88.1767C189.159 87.8407 189.545 87.3226 189.545 86.621C189.545 85.832 189.261 85.2621 188.691 84.9128C188.121 84.562 187.252 84.2556 186.083 83.9921C183.98 83.5259 182.285 83.0359 181 82.5237C179.714 82.0131 178.713 81.4506 177.998 80.8363C177.282 80.2235 176.799 79.5515 176.552 78.8202C176.303 78.0905 176.179 77.2719 176.179 76.366C176.179 75.5475 176.346 74.7733 176.684 74.0436C177.02 73.3138 177.552 72.6699 178.284 72.1148C179.013 71.5597 179.964 71.1142 181.132 70.7782C182.3 70.4422 183.731 70.2734 185.426 70.2734C188.522 70.2734 190.787 70.9025 192.218 72.1578C193.65 73.4145 194.439 75.1522 194.585 77.3726H189.107L189.106 77.3741Z" fill="white"/>
<path d="M191.204 4.31339H189.828V3.81604H193.179V4.31339H191.795V8.34255H191.204V4.31339Z" fill="white"/>
<path d="M197.498 6.35462C197.464 5.72404 197.424 4.96469 197.432 4.40073H197.411C197.257 4.93065 197.069 5.49609 196.841 6.11926L196.042 8.31591H195.599L194.867 6.16071C194.652 5.52273 194.47 4.93805 194.343 4.40073H194.329C194.316 4.96469 194.282 5.72404 194.242 6.40199L194.121 8.34255H193.562L193.879 3.81604H194.625L195.398 6.00529C195.586 6.56333 195.74 7.0592 195.854 7.52991H195.875C195.989 7.074 196.15 6.57665 196.351 6.00529L197.158 3.81604H197.904L198.187 8.34255H197.615L197.501 6.35462H197.498Z" fill="white"/>
<path d="M194.005 11.9898C190.7 11.9898 188.012 9.30023 188.012 5.99489C188.012 2.68956 190.7 0 194.005 0C197.31 0 200 2.68956 200 5.99489C200 9.30023 197.312 11.9898 194.005 11.9898ZM194.005 0.507715C190.98 0.507715 188.519 2.96932 188.519 5.99489C188.519 9.02046 190.981 11.4806 194.005 11.4806C197.029 11.4806 199.492 9.02046 199.492 5.99489C199.492 2.96932 197.031 0.507715 194.005 0.507715Z" fill="white"/>
</svg>
