<svg width="136" height="70" viewBox="0 0 136 70" fill="none" xmlns="http://www.w3.org/2000/svg">
<path d="M41.8115 69.4454C41.4697 69.1035 41.3008 68.6702 41.3008 68.1424C41.3008 67.6146 41.4737 67.1723 41.8246 66.8304C42.1754 66.4836 42.5997 66.3107 43.0953 66.3107C43.5055 66.3107 43.8473 66.4202 44.1248 66.6344C44.4023 66.8485 44.5893 67.1039 44.6848 67.4045L44.348 67.5593C44.2616 67.309 44.1158 67.0948 43.9057 66.9259C43.7006 66.753 43.4271 66.6656 43.0853 66.6656C42.6982 66.6656 42.3695 66.8023 42.097 67.0757C41.8286 67.3492 41.6919 67.695 41.6919 68.1193C41.6919 68.5436 41.8236 68.8985 42.088 69.1759C42.3524 69.4544 42.6852 69.5952 43.0903 69.5952C43.7237 69.5952 44.1479 69.2533 44.352 68.6934L44.6888 68.8522C44.5843 69.1578 44.3882 69.4172 44.1057 69.6314C43.8282 69.8455 43.4814 69.9501 43.0762 69.9501C42.5746 69.9501 42.1513 69.7812 41.8095 69.4444L41.8115 69.4454Z" fill="#25211E"/>
<path d="M47.1963 68.4698V69.9145H46.8223V66.3465H48.0568C48.4711 66.3465 48.7817 66.4471 48.9908 66.6431C49.205 66.8392 49.3095 67.0895 49.3095 67.3861C49.3095 67.6826 49.218 67.9099 49.032 68.0878C48.845 68.2658 48.6128 68.3703 48.3303 68.4065L49.4332 69.9145H48.9778L47.9251 68.4698H47.1963ZM47.1963 68.128H48.0257C48.3263 68.128 48.5545 68.0546 48.7043 67.9139C48.8541 67.7721 48.9325 67.5992 48.9325 67.3991C48.9325 66.998 48.6591 66.6974 48.0347 66.6974H47.1963V68.128Z" fill="#25211E"/>
<path d="M53.7925 66.6924H51.9336V67.9269H53.6336V68.2738H51.9336V69.5677H53.8106V69.9135H51.5596V66.3455H53.7925V66.6914V66.6924Z" fill="#25211E"/>
<path d="M55.9419 69.9135H55.5588L57.099 66.3455H57.5223L59.0625 69.9135H58.6664L58.2793 69.0027H56.334L55.9419 69.9135ZM58.1336 68.6609L57.3041 66.7336L56.4747 68.6609H58.1336Z" fill="#25211E"/>
<path d="M64.3839 69.9135V66.8562H64.3799L63.0538 69.9135H62.717L61.4 66.8794V69.9135H61.031V66.3455H61.5598L62.8949 69.4028L64.216 66.3455H64.7538V69.9135H64.3849H64.3839Z" fill="#25211E"/>
<path d="M70.0237 69.4219C69.6819 69.7728 69.2536 69.9507 68.7389 69.9507C68.2241 69.9507 67.8049 69.7778 67.4631 69.431C67.1213 69.0801 66.9534 68.6518 66.9534 68.1421C66.9534 67.6324 67.1263 67.19 67.4681 66.8391C67.8099 66.4883 68.2382 66.3103 68.753 66.3103C69.2677 66.3103 69.6819 66.4832 70.0237 66.8341C70.3656 67.18 70.5385 67.6092 70.5385 68.119C70.5385 68.6287 70.3656 69.071 70.0237 69.4219ZM69.7503 67.0935C69.4818 66.806 69.144 66.6602 68.7389 66.6602C68.3337 66.6602 68.001 66.8019 67.7365 67.0885C67.4721 67.371 67.3404 67.7128 67.3404 68.118C67.3404 68.5231 67.4721 68.879 67.7416 69.1655C68.01 69.4531 68.3478 69.5988 68.753 69.5988C69.1581 69.5988 69.4909 69.4571 69.7553 69.1746C70.0197 68.8881 70.1514 68.5462 70.1514 68.1401C70.1514 67.7339 70.0197 67.379 69.7503 67.0925V67.0935Z" fill="#25211E"/>
<path d="M72.4648 69.0801L72.7886 68.9112C72.9705 69.3536 73.24 69.5989 73.6994 69.5989C73.9136 69.5989 74.0955 69.5395 74.2413 69.4259C74.3921 69.3123 74.4645 69.1615 74.4645 68.9796C74.4645 68.6156 74.182 68.4015 73.6351 68.2688C72.9062 68.0908 72.5684 67.7772 72.5684 67.2805C72.5684 66.9839 72.678 66.7517 72.8961 66.5747C73.1153 66.3968 73.3787 66.3063 73.6894 66.3063C74.2544 66.3063 74.6465 66.5979 74.8154 67.0493L74.4967 67.2272C74.3469 66.8492 74.0734 66.6582 73.6813 66.6582C73.4803 66.6582 73.3073 66.7125 73.1616 66.8271C73.0158 66.9407 72.9424 67.0865 72.9424 67.2644C72.9424 67.5881 73.1616 67.7611 73.7034 67.9028C74.1227 68.0074 74.4233 68.1582 74.6012 68.3542C74.7651 68.5322 74.8475 68.7322 74.8475 68.9554C74.8475 69.2289 74.743 69.4651 74.5329 69.6612C74.3237 69.8572 74.0453 69.9527 73.6994 69.9527C73.0932 69.9527 72.683 69.6612 72.4648 69.0831V69.0801Z" fill="#25211E"/>
<path d="M80.4141 66.6974H79.2207V66.3465H81.9814V66.6974H80.7921V69.9145H80.4141V66.6974Z" fill="#25211E"/>
<path d="M84.4045 68.4698V69.9145H84.0305V66.3465H85.2651C85.6793 66.3465 85.99 66.4471 86.1991 66.6431C86.4132 66.8392 86.5178 67.0895 86.5178 67.3861C86.5178 67.6826 86.4263 67.9099 86.2403 68.0878C86.0533 68.2658 85.8211 68.3703 85.5386 68.4065L86.6414 69.9145H86.186L85.1334 68.4698H84.4045ZM84.4045 68.128H85.2339C85.5345 68.128 85.7627 68.0546 85.9125 67.9139C86.0623 67.7721 86.1408 67.5992 86.1408 67.3991C86.1408 66.998 85.8673 66.6974 85.243 66.6974H84.4045V68.128Z" fill="#25211E"/>
<path d="M88.6682 69.9135H88.2852L89.8254 66.3455H90.2486L91.7888 69.9135H91.3927L91.0056 69.0027H89.0603L88.6682 69.9135ZM90.8599 68.6609L90.0305 66.7336L89.201 68.6609H90.8599Z" fill="#25211E"/>
<path d="M96.6638 69.9135H96.2627L94.1253 66.8743V69.9135H93.7563V66.3455H94.1887L96.2939 69.3254V66.3455H96.6628V69.9135H96.6638Z" fill="#25211E"/>
<path d="M102.221 70L101.757 69.5808C101.438 69.8271 101.069 69.9497 100.65 69.9497C100.14 69.9497 99.7161 69.7768 99.3742 69.43C99.0324 69.0791 98.8635 68.6508 98.8635 68.1411C98.8635 67.6314 99.0324 67.189 99.3742 66.8382C99.7161 66.4873 100.144 66.3093 100.659 66.3093C101.174 66.3093 101.593 66.4823 101.935 66.8331C102.277 67.179 102.45 67.6083 102.45 68.118C102.45 68.5875 102.304 68.9886 102.016 69.3304L102.468 69.7175L102.221 70ZM99.6467 69.1666C99.9151 69.4541 100.253 69.5999 100.658 69.5999C100.973 69.5999 101.246 69.5134 101.482 69.3405L100.799 68.7433L101.049 68.4658L101.742 69.0902C101.956 68.8217 102.061 68.502 102.061 68.1421C102.061 67.7319 101.928 67.3811 101.659 67.0945C101.391 66.807 101.053 66.6612 100.648 66.6612C100.243 66.6612 99.9101 66.803 99.6457 67.0895C99.3813 67.372 99.2496 67.7138 99.2496 68.119C99.2496 68.5241 99.3813 68.88 99.6457 69.1666H99.6467Z" fill="#25211E"/>
<path d="M107.292 66.3465V68.5201C107.292 69.4269 106.795 69.9507 105.952 69.9507C105.528 69.9507 105.196 69.8231 104.964 69.5677C104.732 69.3123 104.613 68.9705 104.613 68.5422V66.3465H104.987V68.5241C104.987 69.2671 105.37 69.5999 105.967 69.5999C106.563 69.5999 106.919 69.2168 106.919 68.5473V66.3465H107.293H107.292Z" fill="#25211E"/>
<path d="M110.07 69.9135H109.696V66.3455H110.07V69.9135Z" fill="#25211E"/>
<path d="M112.894 69.5627H114.584V69.9135H112.52V66.3455H112.894V69.5627Z" fill="#25211E"/>
<path d="M117.008 69.9135H116.634V66.3455H117.008V69.9135Z" fill="#25211E"/>
<path d="M119.458 66.3465H120.52C121.071 66.3465 121.522 66.5154 121.873 66.8563C122.224 67.193 122.402 67.6173 122.402 68.123C122.402 68.6287 122.22 69.0751 121.86 69.4129C121.5 69.7456 121.054 69.9145 120.52 69.9145H119.458V66.3465ZM119.832 69.5627H120.507C120.958 69.5627 121.318 69.431 121.595 69.1615C121.873 68.8931 122.015 68.5513 122.015 68.132C122.015 67.7128 121.878 67.371 121.6 67.1026C121.327 66.8341 120.962 66.6974 120.503 66.6974H119.833V69.5637L119.832 69.5627Z" fill="#25211E"/>
<path d="M124.501 69.9135H124.118L125.658 66.3455H126.082L127.622 69.9135H127.226L126.839 69.0027H124.893L124.501 69.9135ZM126.693 68.6609L125.863 66.7336L125.034 68.6609H126.693Z" fill="#25211E"/>
<path d="M129.589 66.3465H130.651C131.202 66.3465 131.653 66.5154 132.004 66.8563C132.355 67.193 132.533 67.6173 132.533 68.123C132.533 68.6287 132.351 69.0751 131.991 69.4129C131.631 69.7456 131.185 69.9145 130.651 69.9145H129.589V66.3465ZM129.963 69.5627H130.638C131.089 69.5627 131.449 69.431 131.727 69.1615C132.004 68.8931 132.146 68.5513 132.146 68.132C132.146 67.7128 132.009 67.371 131.732 67.1026C131.458 66.8341 131.093 66.6974 130.634 66.6974H129.964V69.5637L129.963 69.5627Z" fill="#25211E"/>
<path d="M109.045 4.47684C109.045 5.75566 110.081 6.79319 111.361 6.79319C112.641 6.79319 113.678 5.75666 113.678 4.47684C113.678 3.19702 112.641 2.1605 111.361 2.1605C110.081 2.1605 109.045 3.19702 109.045 4.47684Z" fill="#2259A0"/>
<path d="M101.893 14.0879C102.43 12.8189 101.837 11.3545 100.568 10.8172C99.2987 10.2798 97.8343 10.8729 97.297 12.142C96.7596 13.411 97.3527 14.8754 98.6218 15.4127C99.8908 15.9501 101.355 15.357 101.893 14.0879Z" fill="#2259A0"/>
<path d="M93.1924 37.4717C93.1924 38.5393 94.058 39.405 95.1257 39.405C96.1934 39.405 97.059 38.5393 97.059 37.4717C97.059 36.404 96.1934 35.5384 95.1257 35.5384C94.058 35.5384 93.1924 36.404 93.1924 37.4717Z" fill="#94BD3C"/>
<path d="M120.768 8.71844C120.768 10.2265 121.991 11.448 123.498 11.448C125.005 11.448 126.227 10.2255 126.227 8.71844C126.227 7.21141 125.006 5.9889 123.498 5.9889C121.99 5.9889 120.768 7.21141 120.768 8.71844Z" fill="#00923E"/>
<path d="M126.288 12.9058C126.288 14.1464 127.293 15.1517 128.534 15.1517C129.774 15.1517 130.78 14.1464 130.78 12.9058C130.78 11.6651 129.774 10.6598 128.534 10.6598C127.293 10.6598 126.288 11.6651 126.288 12.9058Z" fill="#2259A0"/>
<path d="M83.7803 19.7211C83.7803 21.02 84.8329 22.0736 86.1328 22.0736C87.4327 22.0736 88.4854 21.021 88.4854 19.7211C88.4854 18.4211 87.4327 17.3685 86.1328 17.3685C84.8329 17.3685 83.7803 18.4211 83.7803 19.7211Z" fill="#00923E"/>
<path d="M117.813 7.31295C118.88 7.31295 119.746 6.44738 119.746 5.37965C119.746 4.31192 118.88 3.44635 117.813 3.44635C116.745 3.44635 115.879 4.31192 115.879 5.37965C115.879 6.44738 116.745 7.31295 117.813 7.31295Z" fill="#94BD3C"/>
<path d="M104.562 31.0565C104.562 32.1342 105.436 33.0079 106.513 33.0079C107.591 33.0079 108.465 32.1342 108.465 31.0565C108.465 29.9787 107.591 29.1051 106.513 29.1051C105.436 29.1051 104.562 29.9787 104.562 31.0565Z" fill="#00923E"/>
<path d="M99.0686 19.4044C99.0686 20.2036 99.716 20.8521 100.516 20.8521C101.317 20.8521 101.964 20.2046 101.964 19.4044C101.964 18.6041 101.317 17.9567 100.516 17.9567C99.716 17.9567 99.0686 18.6051 99.0686 19.4044Z" fill="#00923E"/>
<path d="M90.6138 41.3292C90.6138 42.0873 91.228 42.7026 91.9871 42.7026C92.7461 42.7026 93.3604 42.0883 93.3604 41.3292C93.3604 40.5702 92.7461 39.9569 91.9871 39.9569C91.228 39.9569 90.6138 40.5712 90.6138 41.3292Z" fill="#00923E"/>
<path d="M85.1125 26.46C85.1125 27.4623 85.9249 28.2757 86.9282 28.2757C87.9316 28.2757 88.7439 27.4633 88.7439 26.46C88.7439 25.4566 87.9316 24.6443 86.9282 24.6443C85.9249 24.6443 85.1125 25.4566 85.1125 26.46Z" fill="#94BD3C"/>
<path d="M123.554 17.3693C124.394 17.0188 124.791 16.0539 124.44 15.214C124.09 14.3742 123.125 13.9774 122.285 14.3279C121.445 14.6784 121.049 15.6433 121.399 16.4832C121.749 17.323 122.714 17.7197 123.554 17.3693Z" fill="#00923E"/>
<path d="M95.0432 6.31463C95.0432 7.44767 95.9621 8.36657 97.0951 8.36657C98.2282 8.36657 99.1471 7.44767 99.1471 6.31463C99.1471 5.1816 98.2282 4.2627 97.0951 4.2627C95.9621 4.2627 95.0432 5.1816 95.0432 6.31463Z" fill="#2259A0"/>
<path d="M117.352 29.2418C117.352 30.0783 118.031 30.7569 118.867 30.7569C119.704 30.7569 120.382 30.0783 120.382 29.2418C120.382 28.4054 119.705 27.7267 118.867 27.7267C118.03 27.7267 117.352 28.4054 117.352 29.2418Z" fill="#2259A0"/>
<path d="M103.03 13.514C103.03 16.5562 105.496 19.0224 108.538 19.0224C111.58 19.0224 114.046 16.5562 114.046 13.514C114.046 10.4718 111.58 8.00565 108.538 8.00565C105.496 8.00565 103.03 10.4718 103.03 13.514Z" fill="#2259A0"/>
<path d="M112.958 20.8993C112.958 23.3856 114.974 25.4023 117.46 25.4023C119.946 25.4023 121.963 23.3866 121.963 20.8993C121.963 18.4121 119.947 16.3964 117.46 16.3964C114.973 16.3964 112.958 18.4121 112.958 20.8993Z" fill="#E00545"/>
<path d="M124.93 19.8397C124.93 21.9479 126.655 23.656 128.783 23.656C130.911 23.656 132.635 21.9469 132.635 19.8397C132.635 17.7325 130.911 16.0234 128.783 16.0234C126.655 16.0234 124.93 17.7325 124.93 19.8397Z" fill="#94BD3C"/>
<path d="M98.3186 25.7834C98.3186 27.224 99.4858 28.3913 100.927 28.3913C102.367 28.3913 103.534 27.224 103.534 25.7834C103.534 24.3427 102.367 23.1755 100.927 23.1755C99.4858 23.1755 98.3186 24.3427 98.3186 25.7834Z" fill="#94BD3C"/>
<path d="M96.7453 23.0689C97.2908 21.1269 96.1587 19.1103 94.2167 18.5648C92.2747 18.0193 90.2581 19.1514 89.7126 21.0934C89.1671 23.0355 90.2992 25.052 92.2412 25.5975C94.1833 26.1431 96.1998 25.011 96.7453 23.0689Z" fill="#2259A0"/>
<path d="M97.6672 33.7699C97.6672 35.47 99.0456 36.8493 100.747 36.8493C102.448 36.8493 103.826 35.471 103.826 33.7699C103.826 32.0689 102.448 30.6905 100.747 30.6905C99.0456 30.6905 97.6672 32.0689 97.6672 33.7699Z" fill="#2259A0"/>
<path d="M87.4568 12.8877C87.4568 15.2422 89.3649 17.1504 91.7195 17.1504C94.074 17.1504 95.9822 15.2422 95.9822 12.8877C95.9822 10.5331 94.074 8.62494 91.7195 8.62494C89.3649 8.62494 87.4568 10.5331 87.4568 12.8877Z" fill="#94BD3C"/>
<path d="M115.102 11.6893C115.102 13.1249 116.265 14.2881 117.701 14.2881C119.137 14.2881 120.3 13.1249 120.3 11.6893C120.3 10.2536 119.137 9.09043 117.701 9.09043C116.265 9.09043 115.102 10.2536 115.102 11.6893Z" fill="#2259A0"/>
<path d="M101.059 5.3143C101.059 6.8907 102.337 8.16851 103.914 8.16851C105.49 8.16851 106.768 6.8907 106.768 5.3143C106.768 3.7379 105.49 2.46009 103.914 2.46009C102.337 2.46009 101.059 3.7379 101.059 5.3143Z" fill="#00923E"/>
<path d="M105.027 23.2458C105.027 25.0676 106.504 26.5444 108.326 26.5444C110.148 26.5444 111.624 25.0676 111.624 23.2458C111.624 21.4241 110.148 19.9473 108.326 19.9473C106.504 19.9473 105.027 21.4241 105.027 23.2458Z" fill="#2259A0"/>
<path d="M91.3516 29.475C91.3516 31.0223 92.6052 32.276 94.1525 32.276C95.6997 32.276 96.9534 31.0223 96.9534 29.475C96.9534 27.9278 95.6997 26.6741 94.1525 26.6741C92.6052 26.6741 91.3516 27.9278 91.3516 29.475Z" fill="#94BD3C"/>
<path d="M124.117 28.9998C125.418 28.9982 126.47 27.9419 126.469 26.6404C126.467 25.3389 125.412 24.2851 124.111 24.2867C122.811 24.2883 121.758 25.3447 121.76 26.6461C121.761 27.9476 122.817 29.0014 124.117 28.9998Z" fill="#94BD3C"/>
<path d="M110.213 28.8789C110.213 30.2451 111.32 31.352 112.686 31.352C114.052 31.352 115.159 30.2451 115.159 28.8789C115.159 27.5126 114.052 26.4057 112.686 26.4057C111.32 26.4057 110.213 27.5136 110.213 28.8789Z" fill="#94BD3C"/>
<path d="M10.1018 55.5812L6.88871 42.5407H0V63.2199H4.75534V52.7099L7.60855 63.2199H12.4162L15.2995 52.6385V63.2199H20.084V42.5407H13.315L10.1018 55.5812Z" fill="#25211E"/>
<path d="M35.124 55.5178L35.0446 55.8757C34.7892 57.0259 34.3207 57.9106 33.6542 58.5057C32.9907 59.0979 32.122 59.3864 30.998 59.3864C29.5413 59.3864 28.4836 58.8546 27.7638 57.7618C27.0138 56.6237 26.6338 54.981 26.6338 52.8788C26.6338 50.7766 27.0188 49.1831 27.7789 48.0249C28.5078 46.912 29.6287 46.3711 31.2061 46.3711C32.1009 46.3711 32.8851 46.6455 33.6019 47.2106C34.3197 47.7756 34.7923 48.5557 35.0476 49.5943L35.1331 49.9421H40.1347L40.0845 49.4394C39.9809 48.3999 39.7004 47.4056 39.252 46.4857C38.7996 45.5628 38.1833 44.7494 37.4183 44.0678C36.6552 43.3882 35.7343 42.8473 34.6817 42.4623C33.6321 42.0782 32.4528 41.8832 31.175 41.8832C29.7112 41.8832 28.363 42.1466 27.1676 42.6653C25.9672 43.1871 24.9357 43.9441 24.1013 44.9143C23.2709 45.8805 22.6244 47.0748 22.1811 48.4672C21.7427 49.8456 21.5195 51.4089 21.5195 53.116C21.5195 54.8231 21.7648 56.4267 22.2464 57.7527C22.731 59.0848 23.4096 60.2239 24.2621 61.1368C25.1187 62.0577 26.1522 62.7574 27.3325 63.2168C28.5027 63.6723 29.7755 63.9025 31.1147 63.9025C32.3151 63.9025 33.431 63.7125 34.4303 63.3375C35.4327 62.9615 36.3274 62.4206 37.0915 61.7299C37.8536 61.0402 38.492 60.2058 38.9916 59.2507C39.4853 58.3047 39.8502 57.2309 40.0764 56.0607L40.182 55.5158H35.123L35.124 55.5178Z" fill="#25211E"/>
<path d="M41.5261 62.7614V42.9971H51.259C53.2033 42.9971 54.6822 43.4787 55.6936 44.4408C56.706 45.4039 57.2117 46.7179 57.2117 48.3848C57.2117 49.2384 56.9835 49.9974 56.5271 50.6619C56.0706 51.3265 55.4956 51.798 54.8009 52.0755C55.2171 52.2343 55.6092 52.4384 55.9761 52.6857C56.3431 52.9341 56.6608 53.2517 56.9292 53.6388C57.1966 54.0259 57.4098 54.4823 57.5696 55.0081C57.7285 55.5339 57.8079 56.1542 57.8079 56.868C57.8079 58.6736 57.2027 60.1083 55.9922 61.1689C54.7818 62.2306 52.9269 62.7614 50.4265 62.7614H41.5271H41.5261ZM45.5144 46.4203V50.7062H50.7231C52.39 50.7062 53.2234 49.9924 53.2234 48.5628C53.2234 47.8087 53.0093 47.2638 52.583 46.926C52.1558 46.5892 51.456 46.4193 50.4849 46.4193H45.5144V46.4203ZM50.7533 59.3985C51.7054 59.3985 52.4493 59.1311 52.9852 58.5942C53.521 58.0584 53.7895 57.3838 53.7895 56.5704C53.7895 55.6978 53.5261 55.0624 53.0003 54.6653C52.4745 54.2682 51.7456 54.0701 50.8126 54.0701H45.5144V59.3985H50.7533Z" fill="#5E5B5D"/>
<path d="M58.5808 62.7614V48.1174H62.2122V49.8737C62.5288 49.3781 62.8616 48.991 63.2095 48.7136C63.5563 48.4361 63.9132 48.2219 64.2812 48.0731C64.6481 47.9244 65.0201 47.8299 65.3971 47.7906C65.7741 47.7514 66.1612 47.7313 66.5583 47.7313H67.064V51.6904C66.7071 51.6311 66.3502 51.6009 65.9923 51.6009C63.6307 51.6009 62.4504 52.7822 62.4504 55.1428V62.7624H58.5808V62.7614Z" fill="#5E5B5D"/>
<path d="M74.3861 63.1485C73.1957 63.1485 72.1331 62.9595 71.2011 62.5825C70.2681 62.2055 69.4799 61.6797 68.8345 61.0051C68.1901 60.3305 67.6984 59.5171 67.3616 58.5641C67.0238 57.611 66.856 56.5694 66.856 55.4384C66.856 54.3074 67.0299 53.2357 67.3767 52.2836C67.7236 51.3305 68.2253 50.5182 68.8797 49.8426C69.5342 49.168 70.3234 48.6472 71.2453 48.2803C72.1683 47.9133 73.2148 47.7293 74.3861 47.7293C75.5573 47.7293 76.5687 47.9133 77.4816 48.2803C78.3944 48.6482 79.1736 49.164 79.818 49.8285C80.4635 50.4941 80.9591 51.3014 81.306 52.2544C81.6538 53.2065 81.8267 54.2692 81.8267 55.4394C81.8267 56.6097 81.6528 57.6673 81.306 58.6093C80.9581 59.5523 80.4625 60.3606 79.818 61.0352C79.1726 61.7098 78.3894 62.2306 77.4665 62.5976C76.5436 62.9645 75.5171 63.1485 74.3861 63.1485ZM74.3861 59.9042C76.7477 59.9042 77.928 58.4163 77.928 55.4394C77.928 52.4626 76.7477 51.0048 74.3861 51.0048C72.0245 51.0048 70.8442 52.4837 70.8442 55.4394C70.8442 58.3952 72.0245 59.9042 74.3861 59.9042Z" fill="#5E5B5D"/>
<path d="M92.0666 62.7614L88.8514 56.1834L86.9764 58.1187V62.7624H83.0767V42.7608H86.9764V53.6851L91.7981 48.1194H96.5304L91.6192 53.5071L96.4117 62.7644H92.0656L92.0666 62.7614Z" fill="#5E5B5D"/>
<path d="M99.3291 56.4518C99.3884 57.5637 99.7111 58.4464 100.297 59.1009C100.882 59.7554 101.651 60.0832 102.604 60.0832C103.239 60.0832 103.799 59.9394 104.285 59.6518C104.771 59.3643 105.085 58.9632 105.223 58.4464H109.212C108.755 59.9545 107.962 61.1157 106.831 61.929C105.7 62.7433 104.35 63.1495 102.782 63.1495C97.9015 63.1495 95.4604 60.4903 95.4604 55.173C95.4604 54.042 95.6193 53.0205 95.937 52.1077C96.2537 51.1948 96.7151 50.4106 97.3214 49.7561C97.9266 49.1016 98.6655 48.6 99.5382 48.2531C100.411 47.9063 101.414 47.7323 102.545 47.7323C104.807 47.7323 106.518 48.4572 107.68 49.9059C108.84 51.3546 109.421 53.5373 109.421 56.4538H99.3301L99.3291 56.4518ZM105.432 54.0108C105.411 53.4749 105.317 53.0034 105.149 52.5973C104.98 52.1911 104.757 51.8533 104.48 51.5849C104.201 51.3174 103.884 51.1194 103.526 50.9897C103.17 50.861 102.802 50.7957 102.425 50.7957C101.65 50.7957 100.981 51.0792 100.416 51.6442C99.8498 52.2102 99.5271 52.9984 99.4477 54.0108H105.431H105.432Z" fill="#5E5B5D"/>
<path d="M110.61 62.7614V48.1174H114.241V49.8737C114.558 49.3781 114.891 48.991 115.239 48.7136C115.586 48.4361 115.943 48.2219 116.31 48.0731C116.677 47.9244 117.049 47.8299 117.426 47.7906C117.802 47.7514 118.189 47.7313 118.587 47.7313H119.093V51.6904C118.736 51.6311 118.378 51.6009 118.022 51.6009C115.66 51.6009 114.48 52.7822 114.48 55.1428V62.7624H110.61V62.7614Z" fill="#5E5B5D"/>
<path d="M128.439 52.552C128.34 51.8774 128.086 51.3868 127.68 51.0792C127.273 50.7715 126.654 50.6177 125.82 50.6177C124.987 50.6177 124.426 50.7122 124.02 50.9002C123.613 51.0892 123.409 51.411 123.409 51.8674C123.409 52.2645 123.612 52.5812 124.02 52.8195C124.426 53.0577 125.017 53.2859 125.791 53.5041C127.061 53.861 128.133 54.1636 129.006 54.4119C129.879 54.6603 130.579 54.9528 131.104 55.2896C131.63 55.6274 132.007 56.0487 132.235 56.5544C132.463 57.0601 132.577 57.7407 132.577 58.5932C132.577 59.9032 132.031 60.989 130.94 61.8526C129.849 62.7162 128.232 63.1475 126.089 63.1475C125.037 63.1475 124.084 63.0289 123.231 62.7906C122.378 62.5523 121.648 62.2105 121.044 61.7641C120.439 61.3177 119.972 60.7819 119.645 60.1566C119.319 59.5312 119.144 58.8315 119.125 58.0584H123.113C123.113 58.7531 123.385 59.2889 123.931 59.6659C124.477 60.0429 125.186 60.232 126.059 60.232C126.793 60.232 127.424 60.1183 127.95 59.8891C128.475 59.6609 128.738 59.309 128.738 58.8325C128.738 58.2966 128.545 57.9096 128.158 57.6723C127.771 57.434 127.18 57.2259 126.386 57.047C124.958 56.7303 123.806 56.3975 122.934 56.0497C122.06 55.7028 121.381 55.3208 120.895 54.9036C120.408 54.4873 120.081 54.0309 119.913 53.5343C119.744 53.0386 119.659 52.4827 119.659 51.8674C119.659 51.3114 119.773 50.7856 120.002 50.29C120.23 49.7943 120.592 49.357 121.089 48.98C121.585 48.603 122.23 48.3004 123.023 48.0722C123.817 47.8439 124.789 47.7293 125.94 47.7293C128.043 47.7293 129.581 48.1566 130.553 49.0092C131.526 49.8627 132.061 51.043 132.161 52.551H128.44L128.439 52.552Z" fill="#5E5B5D"/>
<path d="M129.865 2.92961H128.93V2.59181H131.206V2.92961H130.266V5.66619H129.865V2.92961Z" fill="#13110C"/>
<path d="M134.14 4.316C134.116 3.88772 134.089 3.37197 134.094 2.98893H134.08C133.976 3.34885 133.848 3.73289 133.693 4.15615L133.15 5.6481H132.85L132.352 4.1843C132.206 3.75099 132.083 3.35387 131.996 2.98893H131.987C131.978 3.37197 131.955 3.88772 131.928 4.34817L131.845 5.66619H131.466L131.681 2.59181H132.188L132.713 4.07873C132.841 4.45775 132.945 4.79455 133.023 5.11425H133.037C133.114 4.8046 133.224 4.4668 133.36 4.07873L133.908 2.59181H134.415L134.607 5.66619H134.219L134.142 4.316H134.14Z" fill="#13110C"/>
<path d="M131.767 8.14339C129.522 8.14339 127.696 6.31666 127.696 4.0717C127.696 1.82673 129.522 0 131.767 0C134.012 0 135.839 1.82673 135.839 4.0717C135.839 6.31666 134.013 8.14339 131.767 8.14339ZM131.767 0.344837C129.712 0.344837 128.041 2.01675 128.041 4.0717C128.041 6.12665 129.713 7.79755 131.767 7.79755C133.821 7.79755 135.494 6.12665 135.494 4.0717C135.494 2.01675 133.822 0.344837 131.767 0.344837Z" fill="#13110C"/>
</svg>
