<svg width="24" height="30" viewBox="0 0 24 30" fill="none" xmlns="http://www.w3.org/2000/svg">
<path d="M14.8237 0L24.0004 9.17676V9.88281H14.1176V0H14.8237Z" fill="#EC6669"/>
<path d="M14.8232 0V6.17676C14.8234 7.83339 16.1666 9.17661 17.8232 9.17676H24V25.6475C23.9998 27.8564 22.209 29.6475 20 29.6475H4C1.791 29.6475 0.00021757 27.8564 0 25.6475V4C2.23418e-06 1.79086 1.79086 6.44257e-08 4 0H14.8232Z" fill="#E4292E"/>
<path fill-rule="evenodd" clip-rule="evenodd" d="M7.27388 15.5294C7.69668 15.5294 8.06157 15.6121 8.36855 15.7776C8.67738 15.9412 8.91543 16.17 9.08271 16.4641C9.24999 16.7564 9.33363 17.0965 9.33363 17.4844C9.33363 17.8741 9.24815 18.2151 9.07719 18.5073C8.90807 18.7978 8.66635 19.023 8.35201 19.1829C8.03767 19.3428 7.66451 19.4228 7.23252 19.4228H6.30605V21.1765H4.94116V15.5294H7.27388ZM6.30605 18.3474H6.97885C7.18473 18.3474 7.3566 18.3116 7.49447 18.2399C7.63418 18.1682 7.73988 18.068 7.81157 17.9393C7.88326 17.8088 7.9191 17.6572 7.9191 17.4844C7.9191 17.3097 7.88326 17.159 7.81157 17.0322C7.73988 16.9035 7.63418 16.8042 7.49447 16.7344C7.35477 16.6645 7.18289 16.6296 6.97885 16.6296H6.30605V18.3474Z" fill="white"/>
<path fill-rule="evenodd" clip-rule="evenodd" d="M12.091 15.5294C12.6663 15.5294 13.1618 15.6425 13.5772 15.8686C13.9945 16.0928 14.3162 16.4164 14.5423 16.8391C14.7684 17.2601 14.8814 17.7638 14.8814 18.3502C14.8814 18.9384 14.7684 19.4439 14.5423 19.8667C14.318 20.2895 13.9972 20.614 13.5799 20.8401C13.1627 21.0643 12.6673 21.1765 12.0937 21.1765H10.0064V15.5294H12.091ZM11.3713 20.0129H12.0413C12.3575 20.0129 12.625 19.9596 12.8437 19.8529C13.0643 19.7445 13.2307 19.5689 13.3428 19.3263C13.4568 19.0818 13.5138 18.7564 13.5138 18.3502C13.5138 17.9439 13.4568 17.6204 13.3428 17.3796C13.2288 17.1369 13.0606 16.9623 12.8382 16.8557C12.6176 16.7472 12.3456 16.693 12.022 16.693H11.3713V20.0129Z" fill="white"/>
<path d="M19.5331 16.6379H17.0432V17.7959H19.2877V18.9072H17.0432V21.1765H15.6783V15.5294H19.5331V16.6379Z" fill="white"/>
</svg>
