<svg width="34" height="34" viewBox="0 0 34 34" fill="none" xmlns="http://www.w3.org/2000/svg">
<g clip-path="url(#clip0_379_4106)">
<g filter="url(#filter0_d_379_4106)">
<path d="M17 0C26.3889 0 33.9999 7.61114 34 17C34 26.3889 26.3889 34 17 34C7.61118 33.9999 0 26.3888 0 17C6.78135e-05 7.61121 7.61122 0.000116269 17 0ZM13.8633 8.28613C10.7897 8.28613 8.29688 10.7789 8.29688 13.8525V20.5312C8.29688 23.6049 10.7897 26.0977 13.8633 26.0977H20.542C23.6156 26.0977 26.1084 23.6049 26.1084 20.5312V13.8525C26.1084 10.7789 23.6156 8.28613 20.542 8.28613H13.8633ZM20.542 9.95605C22.6905 9.95605 24.4385 11.704 24.4385 13.8525V20.5312C24.4385 22.6798 22.6905 24.4277 20.542 24.4277H13.8633C11.7148 24.4277 9.9668 22.6798 9.9668 20.5312V13.8525C9.9668 11.704 11.7148 9.95605 13.8633 9.95605H20.542ZM16.9531 12.8613C14.4236 12.8615 12.3731 14.9128 12.373 17.4424C12.373 19.972 14.4235 22.0233 16.9531 22.0234C19.4828 22.0234 21.5342 19.9721 21.5342 17.4424C21.5341 14.9127 19.4828 12.8613 16.9531 12.8613ZM16.9531 14.5791C18.5312 14.5791 19.8164 15.8632 19.8164 17.4424C19.8164 19.0204 18.5312 20.3057 16.9531 20.3057C15.3752 20.3055 14.0908 19.0204 14.0908 17.4424C14.0909 15.8633 15.3752 14.5792 16.9531 14.5791ZM21.7891 11.8477C21.3675 11.8477 21.0256 12.1889 21.0254 12.6104C21.0254 13.032 21.3674 13.374 21.7891 13.374C22.2106 13.374 22.5527 13.032 22.5527 12.6104C22.5525 12.1889 22.2105 11.8477 21.7891 11.8477Z" fill="white"/>
</g>
</g>
<defs>
<filter id="filter0_d_379_4106" x="-18" y="-5" width="70" height="70" filterUnits="userSpaceOnUse" color-interpolation-filters="sRGB">
<feFlood flood-opacity="0" result="BackgroundImageFix"/>
<feColorMatrix in="SourceAlpha" type="matrix" values="0 0 0 0 0 0 0 0 0 0 0 0 0 0 0 0 0 0 127 0" result="hardAlpha"/>
<feOffset dy="13"/>
<feGaussianBlur stdDeviation="9"/>
<feColorMatrix type="matrix" values="0 0 0 0 0.0658854 0 0 0 0 0.0730469 0 0 0 0 0.1375 0 0 0 0.08 0"/>
<feBlend mode="normal" in2="BackgroundImageFix" result="effect1_dropShadow_379_4106"/>
<feBlend mode="normal" in="SourceGraphic" in2="effect1_dropShadow_379_4106" result="shape"/>
</filter>
<clipPath id="clip0_379_4106">
<rect width="34" height="34" fill="white"/>
</clipPath>
</defs>
</svg>
