<svg width="34" height="34" viewBox="0 0 34 34" fill="none" xmlns="http://www.w3.org/2000/svg">
<path d="M17 0C26.3888 0 34 7.61116 34 17C34 26.3888 26.3888 34 17 34C7.61116 34 0 26.3888 0 17C0 7.61116 7.61116 0 17 0ZM9.31738 13.6846V25H12.8135V13.6846H9.31738ZM21.7637 13.3652C20.069 13.3652 18.9034 14.3215 18.4268 15.2246H18.374V13.6846H15.0371V25H18.5322V19.4219C18.5322 17.9344 18.7978 16.5 20.6514 16.5C22.4517 16.5002 22.4521 18.1997 22.4521 19.4746V25H26V18.7842C26 15.7562 25.3116 13.3654 21.7637 13.3652ZM11.0654 8C9.90043 8 9.00018 8.9558 9 10.0713C9 11.1869 9.90032 12.0908 11.0654 12.0908C12.1776 12.0908 13.0781 11.1869 13.0781 10.0713C13.0779 8.95581 12.1775 8.00001 11.0654 8Z" fill="white"/>
</svg>
