<svg width="34" height="34" viewBox="0 0 34 34" fill="none" xmlns="http://www.w3.org/2000/svg">
<path d="M17 0C26.3888 0 34 7.61116 34 17C34 26.3888 26.3888 34 17 34C7.61116 34 0 26.3888 0 17C0 7.61116 7.61116 0 17 0ZM20.6904 8C19.7557 8.00737 18.8202 8.00048 17.8779 8.01465L17.876 8.0127C17.8547 10.8603 17.8682 13.7085 17.8613 16.5635C17.8544 17.8315 17.8834 19.0923 17.8115 20.3604L17.8105 20.3691C17.7754 20.6462 17.6702 20.9015 17.5166 21.1123L17.5107 21.1221C17.0974 21.7814 16.3665 22.228 15.5244 22.2529H15.5293C15.495 22.2546 15.4607 22.2549 15.4258 22.2549C14.2083 22.2549 13.198 21.3796 13.0068 20.2197L13.0078 20.2334C12.994 20.1201 12.9873 20.0044 12.9873 19.8877C12.9873 19.5998 13.0309 19.3211 13.1074 19.0791L13.1133 19.0615C13.4519 18.1167 14.3663 17.4404 15.4414 17.4404C15.7344 17.4404 16.0153 17.4904 16.2588 17.5771C16.2588 16.5289 16.3025 15.4799 16.2881 14.4316C15.9981 14.3846 15.7003 14.3594 15.3965 14.3594C12.5949 14.3594 10.2899 16.4557 10.0078 19.165C9.99345 19.5117 10.0003 19.8657 10.0146 20.2197L10.0176 20.2432C10.2011 21.9394 11.1899 23.3991 12.625 24.2559C13.4167 24.7279 14.3449 25 15.3379 25C15.4219 25 15.5054 24.9985 15.5762 24.9951H15.584C17.3357 24.943 18.8762 24.0621 19.8271 22.7207C20.3888 21.9243 20.74 20.9727 20.7988 19.9297C20.8201 17.8685 20.8056 15.8 20.8125 13.7314L21.0596 13.8906C21.341 14.0656 21.6401 14.2294 21.9785 14.3896L21.9316 14.3711C22.8646 14.8007 23.8996 15.0499 25 15.0771V12.2227L24.9834 12.2217C23.8185 12.1422 22.7613 11.6746 21.9492 10.9541L21.9512 10.9551C21.1965 10.1875 20.7215 9.15144 20.6904 8Z" fill="white"/>
</svg>
