<svg width="34" height="34" viewBox="0 0 34 34" fill="none" xmlns="http://www.w3.org/2000/svg">
<path d="M17 0C26.3888 0 34 7.61116 34 17C34 26.3888 26.3888 34 17 34C7.61116 34 0 26.3888 0 17C0 7.61116 7.61116 0 17 0ZM16.5059 7C14.8529 7.00163 13.2294 7.43769 11.7979 8.26367C10.3664 9.08963 9.1765 10.2763 8.34863 11.7061C7.52079 13.1358 7.08335 14.7583 7.08008 16.4102C7.07688 18.0622 7.50874 19.6861 8.33105 21.1191L7 26L11.9902 24.6934C13.3683 25.4595 14.9172 25.8679 16.4941 25.8809C19.0009 25.881 21.4063 24.8916 23.1865 23.1279C24.9667 21.3645 25.9779 18.9698 26 16.4648C25.9917 15.2148 25.7363 13.9784 25.249 12.8271C24.7617 11.6758 24.0519 10.6315 23.1602 9.75488C22.2892 8.87797 21.2524 8.18291 20.1104 7.70996C18.968 7.23699 17.7423 6.99552 16.5059 7ZM16.9482 8.63086C18.8649 8.73303 20.6777 9.53451 22.043 10.8828C23.5354 12.3413 24.3902 14.3312 24.4199 16.417C24.4011 18.5021 23.5582 20.495 22.0762 21.9629C20.5942 23.4306 18.5924 24.254 16.5059 24.2539C15.1011 24.2548 13.722 23.8781 12.5137 23.1621L12.2285 22.9834L9.26953 23.7676L10.0537 20.8818L9.86328 20.585C8.85248 18.9542 8.47591 17.0093 8.80371 15.1191C9.13155 13.229 10.1415 11.5248 11.6426 10.3291C13.1437 9.13338 15.0314 8.5287 16.9482 8.63086ZM13.167 12.0234C13.047 12.0253 12.9288 12.0524 12.8203 12.1035C12.7117 12.1547 12.6149 12.2289 12.5371 12.3203C12.2707 12.5793 12.063 12.8923 11.9277 13.2383C11.7925 13.5845 11.7326 13.956 11.7529 14.3271C11.8275 15.2154 12.1627 16.0625 12.7158 16.7617C13.7284 18.2765 15.1156 19.5041 16.7432 20.3242C17.5968 20.8222 18.5893 21.0304 19.5713 20.918C19.8983 20.8531 20.2083 20.7197 20.4805 20.5273C20.7528 20.3351 20.9821 20.0881 21.1523 19.8018C21.3101 19.4522 21.3598 19.0626 21.2949 18.6846C21.188 18.5659 21.0334 18.5064 20.7959 18.3877C20.5582 18.2689 19.4053 17.6992 19.1914 17.6279C18.9775 17.5567 18.8107 17.5096 18.6562 17.7471C18.4239 18.0653 18.1742 18.3705 17.9082 18.6611C17.7775 18.8273 17.635 18.8391 17.3975 18.6611C16.0427 18.1261 14.9138 17.1408 14.2012 15.8711C13.9516 15.4555 14.4381 15.4785 14.8896 14.5879C14.923 14.5237 14.9404 14.4522 14.9404 14.3799C14.9404 14.3078 14.9229 14.2369 14.8896 14.1729C14.8896 14.0541 14.3552 12.8899 14.165 12.4268C13.9751 11.9643 13.7852 12.0351 13.6309 12.0234H13.167Z" fill="white"/>
</svg>
