<svg width="34" height="34" viewBox="0 0 34 34" fill="none" xmlns="http://www.w3.org/2000/svg">
<g clip-path="url(#clip0_422_11)">
<path d="M16.7998 0C26.0781 0.000156685 33.5995 7.52149 33.5996 16.7998C33.5996 26.0782 26.0782 33.5995 16.7998 33.5996C7.5213 33.5996 0 26.0783 0 16.7998C0.00010721 7.52139 7.52137 0 16.7998 0ZM8.39941 10L14.4482 18.2041L8.71484 25H11.1699L15.5947 19.7559L19.4619 25H24.3994L18.0938 16.3535L23.4541 10H21L16.957 14.793L13.4619 10H8.39941ZM12.7236 11.4434L21.499 23.4766H20.1396L11.2646 11.4434H12.7236Z" fill="#0056A0"/>
</g>
<defs>
<clipPath id="clip0_422_11">
<rect width="34" height="34" fill="white"/>
</clipPath>
</defs>
</svg>
